# xmcd CD database file
#
# Track frame offsets:
#	150
#	2487
#	31395
#	52460
#	80790
#	118482
#	153957
#	192432
#	218175
#	258452
#	288000
#
# Disc length: 4349 seconds
#
# Revision: 0
# Processed by: cddbd v1.5.1PL0 Copyright (c) Steve Scherf et al.
# Submitted via: CDex 1.51
#
DISCID=a110fb0b
DTITLE=天使のしっぽ - 天使のしっぽ DJ☆CD Edition1
DYEAR=1900
DGENRE=Anime
TTITLE0=オープニング
TTITLE1=ご主人様と守護天使のフリートークコーナー(2001年10月7日放送分)
TTITLE2=ちびっこトリオのお悩み解決コーナー(2001年10月7日放送分)
TTITLE3=ご主人様と守護天使のフリートークコーナー(2001年10月14日放送分)
TTITLE4=ちびっこトリオのお悩み解決コーナー(2001年10月14日放送分)
TTITLE5=特別収録　テーマトークキャストクレジット　第1回　「好きな動物、嫌いな動物」
TTITLE6=ご主人様と守護天使のフリートークコーナー(2001年10月21日放送分)
TTITLE7=ちびっこコンビのお悩み解決コーナー(2001年10月21日放送分)
TTITLE8=ご主人様と守護天使のフリートークコーナー(2001年10月28日放送分)
TTITLE9=ちびっこコンビのお悩み解決コーナー(2001年10月28日放送分)
TTITLE10=エンディング　特別収録テーマキャストクレジット　第2回　「あなたの前に守護天使が現れ、お世話してくれるといわれたら、何をしてもらいたいですか?」
EXTD=
EXTT0=
EXTT1=
EXTT2=
EXTT3=
EXTT4=
EXTT5=
EXTT6=
EXTT7=
EXTT8=
EXTT9=
EXTT10=
PLAYORDER=
